# xmcd
#
# Track frame offsets:
#	150
#	18181
#	37344
#	54025
#	75059
#	92173
#	112663
#	126946
#	145467
#	169274
#	188414
#
# Disc length: 2733 seconds
#
# Revision: 4
# Processed by: cddbd v1.5.1PL0 Copyright (c) Steve Scherf et al.
# Submitted via: EasyCDDAExtractor 6.2.0.3
#
DISCID=7e0aab0b
DTITLE=Eminem - Eminem Is Back
DYEAR=2004
DGENRE=Hip Hop
TTITLE0=Hellbound
TTITLE1=Nuttin' To Do ( and Bad Meets Evil)
TTITLE2=She's The One ( and Royce Da 5'9'')
TTITLE3=Threesixfive ( and Oldworlddisorder)
TTITLE4=Scary Movies ( and Bad Meets Evil)
TTITLE5=Rush Ya Clique ( and Outsidaz)
TTITLE6=Hustlers And Hardcore ( and Domingo)
TTITLE7=Rock City ( and Royce Da 5'9'')
TTITLE8=Macosa Feat Outsidaz (Demo Version)
TTITLE9=Nuttin' To Do (Clean Radio Version) ( and Bad Meets Evil)
TTITLE10=Scary Movies (Instrumental Version) ( and Bad Meets Evil)
EXTD=
EXTT0=
EXTT1=
EXTT2=
EXTT3=
EXTT4=
EXTT5=
EXTT6=
EXTT7=
EXTT8=
EXTT9=
EXTT10=
PLAYORDER=
